<svg width="320" height="297" viewBox="0 0 320 297" fill="none" xmlns="http://www.w3.org/2000/svg">
<g opacity="0.3">
<path fill-rule="evenodd" clip-rule="evenodd" d="M131.439 78.6071C127.37 80.3962 121.614 81.5121 115.231 81.5121C108.848 81.5121 103.091 80.396 99.0224 78.6068C97.8394 78.138 96.6922 77.5983 95.5861 76.9929C90.6022 77.9829 85.0254 78.537 79.1386 78.537C57.9719 78.537 40.813 71.3736 40.813 62.537C40.813 56.0081 50.1803 50.3925 63.6102 47.9048C67.0443 43.0258 72.7195 39.838 79.1393 39.838C79.8166 39.838 80.4856 39.8734 81.1446 39.9427C85.2828 27.7632 96.8148 19 110.393 19C123.75 19 135.126 27.4789 139.433 39.3478C143.096 38.2518 147.588 37.6065 152.442 37.6065C154.886 37.6065 157.238 37.7701 159.439 38.0726C162.228 35.0396 166.228 33.1389 170.673 33.1389C177.465 33.1389 183.22 37.5768 185.196 43.711C202.544 44.5007 215.697 48.2976 215.697 52.8625C215.697 56.6274 206.751 59.8698 193.883 61.3338C196.412 62.5897 197.836 64.0086 197.836 65.5107C197.836 70.132 184.356 73.9663 166.69 74.6901C163.542 78.2377 155.351 80.7667 145.743 80.7667C140.301 80.7667 135.313 79.9553 131.439 78.6071Z" fill="url(#paint0_linear_794_2260)"/>
<circle cx="110.393" cy="49.8837" r="30.8837" fill="url(#paint1_linear_794_2260)"/>
<circle cx="79.1387" cy="58.8148" r="18.9767" fill="url(#paint2_linear_794_2260)"/>
<circle cx="104.068" cy="68.8617" r="14.1395" fill="url(#paint3_linear_794_2260)"/>
<circle cx="149.837" cy="57.325" r="21.2093" fill="url(#paint4_linear_794_2260)"/>
<circle cx="120.441" cy="72.5818" r="9.67442" fill="url(#paint5_linear_794_2260)"/>
<circle cx="136.068" cy="62.9057" r="15.6279" fill="url(#paint6_linear_794_2260)"/>
<circle cx="170.301" cy="48.7668" r="15.6279" fill="url(#paint7_linear_794_2260)"/>
</g>
<g opacity="0.3">
<path fill-rule="evenodd" clip-rule="evenodd" d="M205.439 289.607C201.37 291.396 195.614 292.512 189.231 292.512C182.848 292.512 177.091 291.396 173.022 289.607C171.839 289.138 170.692 288.598 169.586 287.993C164.602 288.983 159.025 289.537 153.139 289.537C131.972 289.537 114.813 282.374 114.813 273.537C114.813 267.008 124.18 261.392 137.61 258.905C141.044 254.026 146.72 250.838 153.139 250.838C153.817 250.838 154.486 250.873 155.145 250.943C159.283 238.763 170.815 230 184.393 230C197.75 230 209.126 238.479 213.433 250.348C217.096 249.252 221.588 248.606 226.442 248.606C228.886 248.606 231.238 248.77 233.439 249.073C236.228 246.04 240.228 244.139 244.673 244.139C251.465 244.139 257.22 248.577 259.196 254.711C276.544 255.501 289.697 259.298 289.697 263.863C289.697 267.627 280.751 270.87 267.883 272.334C270.412 273.59 271.836 275.009 271.836 276.511C271.836 281.132 258.356 284.966 240.69 285.69C237.542 289.238 229.351 291.767 219.743 291.767C214.301 291.767 209.313 290.955 205.439 289.607Z" fill="url(#paint8_linear_794_2260)"/>
<circle cx="184.393" cy="260.884" r="30.8837" fill="url(#paint9_linear_794_2260)"/>
<circle cx="153.139" cy="269.815" r="18.9767" fill="url(#paint10_linear_794_2260)"/>
<circle cx="178.068" cy="279.862" r="14.1395" fill="url(#paint11_linear_794_2260)"/>
<circle cx="223.837" cy="268.325" r="21.2093" fill="url(#paint12_linear_794_2260)"/>
<circle cx="194.441" cy="283.582" r="9.67442" fill="url(#paint13_linear_794_2260)"/>
<circle cx="210.068" cy="273.906" r="15.6279" fill="url(#paint14_linear_794_2260)"/>
<circle cx="244.301" cy="259.767" r="15.6279" fill="url(#paint15_linear_794_2260)"/>
</g>
<g filter="url(#filter0_f_794_2260)">
<path d="M308.53 206.897C312.216 206.516 312.716 182.138 309.648 152.446C306.58 122.754 301.104 98.9932 297.419 99.3741C293.733 99.7549 293.232 124.134 296.301 153.825C299.369 183.517 304.844 207.278 308.53 206.897Z" fill="white" style="mix-blend-mode:darken"/>
</g>
<path d="M298.65 163.078L279.495 185.433C276.848 188.523 272.902 190.204 268.836 189.983L69.5722 178.981C53.7294 178.105 52.8134 155.086 68.5355 152.952L244.971 128.986C246.823 128.735 248.705 128.886 250.497 129.419L292.479 142.031C301.538 144.749 304.81 155.891 298.65 163.078V163.078Z" fill="#E5E5E5"/>
<path d="M130.71 20.946C126.533 10.9914 133.84 0 144.63 0H184.509C190.588 0 196.074 3.64366 198.429 9.25006L309.269 273.224C313.446 283.179 306.139 294.17 295.349 294.17H255.47C249.39 294.17 243.905 290.526 241.549 284.92L130.71 20.946Z" fill="#FFDC5E"/>
<path d="M37.7451 296.024C58.5911 296.024 75.4901 279.125 75.4901 258.279C75.4901 237.432 58.5911 220.533 37.7451 220.533C16.899 220.533 0 237.432 0 258.279C0 279.125 16.899 296.024 37.7451 296.024Z" fill="#E5E5E5"/>
<path d="M251.101 144.289C252.41 144.198 253.718 144.128 255.027 144.047L242.375 113.911C235.621 114.596 228.877 115.743 222.174 116.79C214.635 117.968 207.096 119.196 199.597 120.625C193.115 121.863 186.703 123.504 180.241 124.853C178.44 125.235 176.608 125.597 174.776 125.93L185.415 151.264C207.277 148.607 229.109 145.768 251.091 144.299L251.101 144.289Z" fill="#F1594E"/>
<path d="M210.538 170.437C219.254 170.87 227.971 171.192 236.687 171.575C245.243 171.947 253.778 172.561 262.324 172.943C263.964 173.014 265.605 173.074 267.256 173.135L242.163 113.377C235.339 114.061 228.514 114.826 221.69 115.571C204.981 117.403 187.79 118.963 171.021 116.93L193.024 169.34C198.862 169.783 204.7 170.145 210.538 170.437Z" fill="url(#paint16_linear_794_2260)"/>
<path d="M266.489 213.981L258.336 172.744C258.014 171.123 259.071 169.553 260.692 169.231C262.312 168.909 263.882 169.966 264.205 171.586C264.245 171.667 269.7 213.327 269.73 213.448C269.982 215.511 266.932 216.035 266.489 213.981V213.981Z" fill="#C13B38"/>
<path d="M226.681 220.393L218.357 168.98C217.824 165.094 223.521 164.148 224.255 168.023C224.286 168.043 229.872 219.89 229.892 219.961C230.093 222.004 227.054 222.447 226.691 220.393H226.681Z" fill="#C13B38"/>
<path d="M243.199 149.522L214.261 86.141C213.486 84.3795 216.073 83.0912 216.979 84.8325L248.292 147.077C249.902 150.499 244.87 152.945 243.189 149.522H243.199Z" fill="#C13B38"/>
<path d="M203.471 154.151L176.436 90.6889C175.701 88.9174 178.318 87.6894 179.184 89.4508L208.907 151.695C210.537 155.349 205.152 157.815 203.461 154.151H203.471Z" fill="#C13B38"/>
<path opacity="0.9" d="M37.7451 296.007C58.5911 296.007 75.4901 279.108 75.4901 258.262C75.4901 237.416 58.5911 220.517 37.7451 220.517C16.899 220.517 0 237.416 0 258.262C0 279.108 16.899 296.007 37.7451 296.007Z" fill="#FFDC5E"/>
<path d="M305.805 149.009C308.542 150.186 308.975 153.88 306.59 155.662L305.684 156.346L299.403 161.037L298.477 153.256L297.551 145.476L304.758 148.566L305.805 149.019V149.009Z" fill="#00414F"/>
<g filter="url(#filter1_bf_794_2260)">
<path d="M305.981 183.543C308.065 183.327 308.348 169.539 306.613 152.746C304.877 135.953 301.781 122.514 299.696 122.73C297.612 122.945 297.328 136.733 299.064 153.526C300.799 170.319 303.896 183.758 305.981 183.543Z" fill="white" style="mix-blend-mode:darken"/>
</g>
<path d="M72.0889 114.009L51.6462 154.1L89.2202 149.349L94.1522 125.343C94.8366 122.223 93.8905 118.972 91.6258 116.727L86.7944 111.926C82.416 107.578 75.0884 108.614 72.0889 114.009Z" fill="url(#paint17_linear_794_2260)"/>
<path d="M289.329 141.067L250.154 129.301C248.363 128.768 246.48 128.617 244.628 128.868L88.8872 149.24L88.6658 149.271C83.925 148.234 79.9995 145.053 76.8994 141.309C73.2256 136.88 70.3469 131.757 68.2835 126.392C67.901 125.406 67.5789 124.409 67.3071 123.403L51.6454 154.102C51.6454 154.102 36.6078 174.354 47.7099 178.037C48.3943 178.339 49.1694 178.531 50.035 178.591C50.1054 178.591 50.1759 178.591 50.2564 178.601L268.846 189.975C272.912 190.196 276.848 188.515 279.505 185.425L298.659 163.07C304.095 156.719 303.964 144.127 289.339 141.067H289.329Z" fill="#FFDC5E"/>
<path d="M266.772 213.88L249.389 173.115C248.05 169.763 252.932 167.659 254.442 170.961C254.472 170.981 269.55 212.712 269.59 212.772C270.224 214.584 267.567 215.651 266.782 213.88H266.772Z" fill="#00414F"/>
<path d="M226.733 220.251L208.605 169.451C207.458 165.968 212.531 164.136 213.859 167.579C213.88 167.579 229.571 219.264 229.602 219.305C230.135 221.147 227.417 222.083 226.733 220.251V220.251Z" fill="#00414F"/>
<path opacity="0.6" d="M225.535 131.525L247.608 128.868L276.576 137.182L225.645 139.497L225.535 131.525Z" fill="white"/>
<path opacity="0.6" d="M179.496 137.544L222.757 131.888V139.809L179.596 145.194L179.496 137.544Z" fill="white"/>
<path d="M232.993 149.147L214.201 85.7758C213.959 84.9806 214.422 84.1351 215.217 83.9036C215.992 83.6721 216.818 84.1049 217.079 84.8598L238.388 147.436C239.515 151.05 234.19 152.781 232.993 149.157V149.147Z" fill="#00414F"/>
<path d="M301.94 153.89C301.588 153.809 301.246 153.718 300.873 153.648C284.789 149.119 283.027 148.827 275.176 148.937C229.912 149.612 95.8319 171.081 52.3697 178.711L268.835 189.974C272.902 190.195 276.837 188.514 279.494 185.424L298.649 163.069C300.742 160.633 302 157.272 301.94 153.89Z" fill="url(#paint18_linear_794_2260)"/>
<path d="M194.361 154.151L175.72 90.7287C175.197 88.8868 177.935 87.9708 178.599 89.8128L200.058 152.339C201.256 156.164 195.619 157.995 194.371 154.151H194.361Z" fill="#00414F"/>
<path d="M239.562 196.376L228.312 199.859C227.118 200.228 226.449 201.497 226.819 202.692L226.976 203.201C227.346 204.396 228.615 205.065 229.81 204.695L241.059 201.213C242.254 200.843 242.923 199.574 242.553 198.38L242.395 197.87C242.025 196.675 240.757 196.006 239.562 196.376Z" fill="#00414F"/>
<path d="M234.111 198.239L221.273 165.766" stroke="#00414F" stroke-width="3" stroke-miterlimit="10"/>
<path d="M225.623 161.149L214.373 164.631C213.178 165.001 212.51 166.27 212.879 167.465L213.037 167.974C213.407 169.169 214.675 169.838 215.87 169.468L227.12 165.986C228.315 165.616 228.984 164.347 228.614 163.152L228.456 162.643C228.086 161.448 226.818 160.779 225.623 161.149Z" fill="#00414F"/>
<defs>
<filter id="filter0_f_794_2260" x="286.291" y="91.3695" width="33.3676" height="123.532" filterUnits="userSpaceOnUse" color-interpolation-filters="sRGB">
<feFlood flood-opacity="0" result="BackgroundImageFix"/>
<feBlend mode="normal" in="SourceGraphic" in2="BackgroundImageFix" result="shape"/>
<feGaussianBlur stdDeviation="4" result="effect1_foregroundBlur_794_2260"/>
</filter>
<filter id="filter1_bf_794_2260" x="291.927" y="116.727" width="21.8228" height="72.8181" filterUnits="userSpaceOnUse" color-interpolation-filters="sRGB">
<feFlood flood-opacity="0" result="BackgroundImageFix"/>
<feGaussianBlur in="BackgroundImage" stdDeviation="2"/>
<feComposite in2="SourceAlpha" operator="in" result="effect1_backgroundBlur_794_2260"/>
<feBlend mode="normal" in="SourceGraphic" in2="effect1_backgroundBlur_794_2260" result="shape"/>
<feGaussianBlur stdDeviation="3" result="effect2_foregroundBlur_794_2260"/>
</filter>
<linearGradient id="paint0_linear_794_2260" x1="128.627" y1="19" x2="128.255" y2="81.5121" gradientUnits="userSpaceOnUse">
<stop offset="0.171875" stop-color="white"/>
<stop offset="1" stop-color="#618CFB"/>
</linearGradient>
<linearGradient id="paint1_linear_794_2260" x1="110.393" y1="19" x2="110.393" y2="80.7674" gradientUnits="userSpaceOnUse">
<stop stop-color="white"/>
<stop offset="1" stop-color="#618CFB"/>
</linearGradient>
<linearGradient id="paint2_linear_794_2260" x1="79.1387" y1="39.838" x2="79.1387" y2="77.7915" gradientUnits="userSpaceOnUse">
<stop stop-color="white"/>
<stop offset="1" stop-color="#618CFB"/>
</linearGradient>
<linearGradient id="paint3_linear_794_2260" x1="104.068" y1="54.7222" x2="104.068" y2="83.0012" gradientUnits="userSpaceOnUse">
<stop stop-color="#FCFCFC"/>
<stop offset="1" stop-color="#618CFB"/>
</linearGradient>
<linearGradient id="paint4_linear_794_2260" x1="149.837" y1="36.1157" x2="149.837" y2="78.5343" gradientUnits="userSpaceOnUse">
<stop stop-color="#FCFCFC"/>
<stop offset="1" stop-color="#618CFB"/>
</linearGradient>
<linearGradient id="paint5_linear_794_2260" x1="120.441" y1="62.9073" x2="120.441" y2="82.2562" gradientUnits="userSpaceOnUse">
<stop stop-color="#FCFCFC"/>
<stop offset="1" stop-color="#618CFB"/>
</linearGradient>
<linearGradient id="paint6_linear_794_2260" x1="136.068" y1="47.2778" x2="136.068" y2="78.5336" gradientUnits="userSpaceOnUse">
<stop stop-color="#FCFCFC"/>
<stop offset="1" stop-color="#618CFB"/>
</linearGradient>
<linearGradient id="paint7_linear_794_2260" x1="170.301" y1="33.1389" x2="170.301" y2="64.3947" gradientUnits="userSpaceOnUse">
<stop stop-color="#FCFCFC"/>
<stop offset="1" stop-color="#618CFB"/>
</linearGradient>
<linearGradient id="paint8_linear_794_2260" x1="202.627" y1="230" x2="202.255" y2="292.512" gradientUnits="userSpaceOnUse">
<stop offset="0.171875" stop-color="white"/>
<stop offset="1" stop-color="#618CFB"/>
</linearGradient>
<linearGradient id="paint9_linear_794_2260" x1="184.393" y1="230" x2="184.393" y2="291.767" gradientUnits="userSpaceOnUse">
<stop stop-color="white"/>
<stop offset="1" stop-color="#618CFB"/>
</linearGradient>
<linearGradient id="paint10_linear_794_2260" x1="153.139" y1="250.838" x2="153.139" y2="288.792" gradientUnits="userSpaceOnUse">
<stop stop-color="white"/>
<stop offset="1" stop-color="#618CFB"/>
</linearGradient>
<linearGradient id="paint11_linear_794_2260" x1="178.068" y1="265.722" x2="178.068" y2="294.001" gradientUnits="userSpaceOnUse">
<stop stop-color="#FCFCFC"/>
<stop offset="1" stop-color="#618CFB"/>
</linearGradient>
<linearGradient id="paint12_linear_794_2260" x1="223.837" y1="247.116" x2="223.837" y2="289.534" gradientUnits="userSpaceOnUse">
<stop stop-color="#FCFCFC"/>
<stop offset="1" stop-color="#618CFB"/>
</linearGradient>
<linearGradient id="paint13_linear_794_2260" x1="194.441" y1="273.907" x2="194.441" y2="293.256" gradientUnits="userSpaceOnUse">
<stop stop-color="#FCFCFC"/>
<stop offset="1" stop-color="#618CFB"/>
</linearGradient>
<linearGradient id="paint14_linear_794_2260" x1="210.068" y1="258.278" x2="210.068" y2="289.534" gradientUnits="userSpaceOnUse">
<stop stop-color="#FCFCFC"/>
<stop offset="1" stop-color="#618CFB"/>
</linearGradient>
<linearGradient id="paint15_linear_794_2260" x1="244.301" y1="244.139" x2="244.301" y2="275.395" gradientUnits="userSpaceOnUse">
<stop stop-color="#FCFCFC"/>
<stop offset="1" stop-color="#618CFB"/>
</linearGradient>
<linearGradient id="paint16_linear_794_2260" x1="206.843" y1="116.758" x2="208.353" y2="130.346" gradientUnits="userSpaceOnUse">
<stop stop-color="#FFDC5E"/>
<stop offset="1" stop-color="#C13B38"/>
</linearGradient>
<linearGradient id="paint17_linear_794_2260" x1="86.0591" y1="112.732" x2="73.4774" y2="141.418" gradientUnits="userSpaceOnUse">
<stop stop-color="#F1594E"/>
<stop offset="1" stop-color="#C13B38"/>
</linearGradient>
<linearGradient id="paint18_linear_794_2260" x1="173.124" y1="159.536" x2="179.164" y2="190.235" gradientUnits="userSpaceOnUse">
<stop stop-color="#FFDC5E"/>
<stop offset="0.520833" stop-color="#F1594E"/>
<stop offset="1" stop-color="#C13B38"/>
</linearGradient>
</defs>
</svg>
